# xmcd
#
# Track frame offsets: 
#        150
#        24555
#        30225
#        43655
#        51725
#        58695
#        72410
#        77215
#        86765
#        100330
#        106285
#        116920
#        123880
#        130465
#        146425
#        152775
#        167375
#        179415
#        193060
#        205725
#
# Disc length: 2934 seconds
#
# Revision: 0
# Processed by: cddbd v1.5PL3 Copyright (c) Steve Scherf et al.
# Submitted via: ExactAudioCopy v0.90b4
#
DISCID=200b7414
DTITLE=Divers - Folklore de Provence
DYEAR=1990
DGENRE=Folklore
TTITLE0=Ouverture de Mireille
TTITLE1=Farandole
TTITLE2=Cansoun gardiano
TTITLE3=Ai rescountra ma mia
TTITLE4=Pastourelle
TTITLE5=Coupo santo
TTITLE6=Marche du village
TTITLE7=Choeur des magnarelles de Mireille
TTITLE8=Les cordelles
TTITLE9=Mamma vei de vo
TTITLE10=Lou nivo
TTITLE11=Musette de Mireille
TTITLE12=La vieio
TTITLE13=Lou tambourin
TTITLE14=Menuet de la reine Jeanne
TTITLE15=Li dieu de l'oustau
TTITLE16=Mazurka
TTITLE17=Menuet provençal
TTITLE18=Nostro linguo
TTITLE19=La coupo santo
EXTD=
EXTT0=
EXTT1=
EXTT2=
EXTT3=
EXTT4=
EXTT5=
EXTT6=
EXTT7=
EXTT8=
EXTT9=
EXTT10=
EXTT11=
EXTT12=
EXTT13=
EXTT14=
EXTT15=
EXTT16=
EXTT17=
EXTT18=
EXTT19=
PLAYORDER=
